<svg width="20" height="20" viewBox="0 0 20 20" fill="none" xmlns="http://www.w3.org/2000/svg">
  <path d="M20 10C20 15.5228 15.5228 20 10 20C4.47715 20 0 15.5228 0 10C0 4.47715 4.47715 0 10 0C15.5228 0 20 4.47715 20 10Z" fill="white"/>
  <path fill-rule="evenodd" clip-rule="evenodd" d="M13.815 11.0886C13.5684 10.8717 13.1685 10.8717 12.9218 11.0886L10.6316 8.10321V14.4444C10.6316 14.7513 10.3488 15 10 15C9.65119 15 9.36842 14.7513 9.36842 14.4444V8.10321L7.07817 11.0886C6.83153 11.3055 6.43163 11.3055 6.18499 11.0886C5.93834 10.8717 5.93834 10.5199 6.18499 10.303L9.55341 6.9346C9.80005 6.688 10.1999 6.688 10.4466 6.9346L13.815 10.303C14.0617 10.5199 14.0617 10.8717 13.815 11.0886Z" fill="#FF6452"/>
</svg>



